# xmcd CD database file
#
# Track frame offsets:
#	150
#	23775
#	43575
#	62475
#	87751
#	110776
#	133352
#	159827
#	197518
#	233603
#	264353
#	302723
#
# Disc length: 4438 seconds
#
# Revision: 0
# Processed by: cddbd v1.5.2PL0 Copyright (c) Steve Scherf et al.
# Submitted via: CDex 1.70beta2
#
DISCID=9511540c
DTITLE=Bill Keis - Journey
DYEAR=1999
DGENRE=Jazz
TTITLE0=E! Funk
TTITLE1=San Dimas Senorita
TTITLE2=Journey
TTITLE3=Seabreeze
TTITLE4=The Green Machine
TTITLE5=J.P. Sprite
TTITLE6=Savannah West Blues
TTITLE7=Pitter Patter
TTITLE8=Mr. Hip
TTITLE9=L.A.
TTITLE10=Intend It!
TTITLE11=Morrow Bay
EXTD=YEAR: 1999
EXTT0=
EXTT1=
EXTT2=
EXTT3=
EXTT4=
EXTT5=
EXTT6=
EXTT7=
EXTT8=
EXTT9=
EXTT10=
EXTT11=
PLAYORDER=
